<?xml version="1.0" encoding="UTF-8" standalone="no"?>
<!-- Created with Inkscape (http://www.inkscape.org/) -->

<svg
   width="950"
   height="250.00002"
   viewBox="0 0 251.35414 66.14583"
   version="1.1"
   id="svg5"
   xml:space="preserve"
   sodipodi:docname="logo_light.svg"
   inkscape:version="1.2.2 (b0a84865, 2022-12-01)"
   inkscape:export-filename="../../Desktop/logo_final.png"
   inkscape:export-xdpi="336.78"
   inkscape:export-ydpi="336.78"
   xmlns:inkscape="http://www.inkscape.org/namespaces/inkscape"
   xmlns:sodipodi="http://sodipodi.sourceforge.net/DTD/sodipodi-0.dtd"
   xmlns="http://www.w3.org/2000/svg"
   xmlns:svg="http://www.w3.org/2000/svg"><sodipodi:namedview
     id="namedview98"
     pagecolor="#ffffff"
     bordercolor="#000000"
     borderopacity="0.25"
     inkscape:showpageshadow="2"
     inkscape:pageopacity="0.0"
     inkscape:pagecheckerboard="true"
     inkscape:deskcolor="#d1d1d1"
     showgrid="false"
     inkscape:zoom="1.2835262"
     inkscape:cx="315.14745"
     inkscape:cy="188.15354"
     inkscape:window-width="3440"
     inkscape:window-height="1387"
     inkscape:window-x="0"
     inkscape:window-y="25"
     inkscape:window-maximized="1"
     inkscape:current-layer="svg5" /><defs
     id="defs2" /><g
     id="layer2"
     style="stroke-width:6.61458261;stroke-dasharray:none;fill:none;stroke:#ffffff;stroke-opacity:1"><g
       style="fill:none;stroke:#ffffff;stroke-width:2.5716052;stroke-dasharray:none;stroke-opacity:1"
       id="g203"
       transform="matrix(2.572161,0,0,2.572161,-2.7587521,2.0163344)"><path
         stroke-linecap="round"
         stroke-linejoin="round"
         d="m 8.25,4.5 7.5,7.5 -7.5,7.5"
         id="path194"
         style="stroke-width:2.5716052;stroke-dasharray:none;fill:none;stroke:#ffffff;stroke-opacity:1" /></g></g><g
     id="layer3"
     style="fill:#ffffff"><g
       aria-label="causa"
       id="text418"
       style="font-weight:bold;font-size:69.2053px;font-family:Futura;-inkscape-font-specification:'Futura, Bold';stroke-width:2.64583305;stroke-dasharray:none;fill:#ffffff;fill-opacity:1"><path
         d="m 72.141894,51.610718 q -5.051987,0 -9.065894,-2.283775 -3.944702,-2.283775 -6.228477,-6.297682 -2.21457,-4.083113 -2.21457,-9.411921 0,-5.328808 2.21457,-9.342715 2.283775,-4.083113 6.228477,-6.366888 4.013907,-2.283775 9.065894,-2.283775 6.366888,0 10.657616,3.321855 4.359934,3.321854 5.60563,8.996689 h -7.681789 q -0.692053,-2.837418 -3.045033,-4.42914 -2.35298,-1.591721 -5.536424,-1.591721 -2.699006,0 -4.982781,1.384106 -2.283775,1.3149 -3.667881,3.944702 -1.384106,2.560596 -1.384106,6.366887 0,3.806292 1.384106,6.436093 1.384106,2.560596 3.667881,3.944702 2.283775,1.384106 4.982781,1.384106 3.183444,0 5.536424,-1.591722 2.35298,-1.591722 3.045033,-4.498344 h 7.681789 q -1.176491,5.536424 -5.536424,8.927483 -4.359934,3.39106 -10.726822,3.39106 z"
         style="font-weight:500;font-family:'DM Sans Medium';-inkscape-font-specification:'DM Sans Medium,  Medium';stroke-width:2.64583305;stroke-dasharray:none;fill:#ffffff;fill-opacity:1"
         id="path5657" /><path
         d="m 107.99017,51.610718 q -4.35993,0 -7.19735,-1.453311 -2.837414,-1.453312 -4.22152,-3.806292 -1.384106,-2.422185 -1.384106,-5.259603 0,-4.982781 3.875496,-7.889404 3.8755,-2.906622 11.07285,-2.906622 h 8.99669 v -0.622848 q 0,-4.013907 -2.21457,-6.020861 -2.14537,-2.006954 -5.60563,-2.006954 -3.04503,0 -5.32881,1.522517 -2.21457,1.453311 -2.69901,4.359934 h -7.335758 q 0.346026,-3.737086 2.491391,-6.366888 2.214567,-2.699006 5.536427,-4.083112 3.39106,-1.453312 7.40496,-1.453312 7.19735,0 11.14206,3.806292 3.9447,3.737086 3.9447,10.242384 v 21.107616 h -6.36689 l -0.62285,-5.88245 q -1.45331,2.837417 -4.22152,4.775166 -2.76821,1.937748 -7.26656,1.937748 z m 1.45332,-5.951656 q 2.97582,0 4.98278,-1.384106 2.07616,-1.453311 3.18344,-3.806291 1.17649,-2.35298 1.45331,-5.190398 h -8.16622 q -4.35994,0 -6.22848,1.522517 -1.79934,1.522516 -1.79934,3.806291 0,2.352981 1.73013,3.737087 1.79934,1.3149 4.84438,1.3149 z"
         style="font-weight:500;font-family:'DM Sans Medium';-inkscape-font-specification:'DM Sans Medium,  Medium';stroke-width:2.64583305;stroke-dasharray:none;fill:#ffffff;fill-opacity:1"
         id="path5659" /><path
         d="m 147.71389,51.610718 q -6.22848,0 -9.82715,-3.875497 -3.52947,-3.875497 -3.52947,-11.557285 v -19.72351 h 7.33576 v 18.962252 q 0,9.965563 8.16622,9.965563 4.08312,0 6.71292,-2.906623 2.6298,-2.906622 2.6298,-8.304635 V 16.454426 h 7.33576 v 34.325828 h -6.5053 l -0.55364,-6.020861 q -1.59172,3.183444 -4.70596,5.051987 -3.04503,1.799338 -7.05894,1.799338 z"
         style="font-weight:500;font-family:'DM Sans Medium';-inkscape-font-specification:'DM Sans Medium,  Medium';stroke-width:2.64583305;stroke-dasharray:none;fill:#ffffff;fill-opacity:1"
         id="path5661" /><path
         d="m 189.58297,51.610718 q -6.5053,0 -10.72682,-3.183444 -4.22153,-3.183444 -4.84437,-8.443046 h 7.40496 q 0.55365,2.35298 2.6298,4.083112 2.07616,1.660928 5.46722,1.660928 3.32186,0 4.84437,-1.384106 1.52252,-1.384106 1.52252,-3.183444 0,-2.629802 -2.14536,-3.529471 -2.07616,-0.968874 -5.81325,-1.730132 -2.90662,-0.622848 -5.81324,-1.660927 -2.83742,-1.03808 -4.77517,-2.906623 -1.86854,-1.937748 -1.86854,-5.190397 0,-4.498345 3.46026,-7.474173 3.46027,-3.045033 9.68874,-3.045033 5.74404,0 9.27351,2.768212 3.59868,2.768212 4.22153,7.820199 h -7.05894 q -0.34603,-2.214569 -2.07616,-3.460265 -1.66093,-1.245695 -4.49835,-1.245695 -2.76821,0 -4.29072,1.17649 -1.52252,1.107285 -1.52252,2.906622 0,1.799338 2.07616,2.837418 2.14536,1.038079 5.60563,1.868543 3.46026,0.761258 6.36688,1.799338 2.97583,0.968874 4.77517,2.906622 1.79934,1.937748 1.79934,5.674835 0.0692,4.70596 -3.66788,7.820198 -3.66788,3.114239 -10.03477,3.114239 z"
         style="font-weight:500;font-family:'DM Sans Medium';-inkscape-font-specification:'DM Sans Medium,  Medium';stroke-width:2.64583305;stroke-dasharray:none;fill:#ffffff;fill-opacity:1"
         id="path5663" /><path
         d="m 222.93986,51.610718 q -4.35993,0 -7.19735,-1.453311 -2.83742,-1.453312 -4.22152,-3.806292 -1.38411,-2.422185 -1.38411,-5.259603 0,-4.982781 3.8755,-7.889404 3.8755,-2.906622 11.07285,-2.906622 h 8.99669 v -0.622848 q 0,-4.013907 -2.21457,-6.020861 -2.14537,-2.006954 -5.60563,-2.006954 -3.04504,0 -5.32881,1.522517 -2.21457,1.453311 -2.69901,4.359934 h -7.33576 q 0.34603,-3.737086 2.49139,-6.366888 2.21457,-2.699006 5.53642,-4.083112 3.39106,-1.453312 7.40497,-1.453312 7.19735,0 11.14205,3.806292 3.94471,3.737086 3.94471,10.242384 v 21.107616 h -6.36689 l -0.62285,-5.88245 q -1.45331,2.837417 -4.22152,4.775166 -2.76821,1.937748 -7.26656,1.937748 z m 1.45331,-5.951656 q 2.97583,0 4.98278,-1.384106 2.07616,-1.453311 3.18345,-3.806291 1.17649,-2.35298 1.45331,-5.190398 h -8.16623 q -4.35993,0 -6.22847,1.522517 -1.79934,1.522516 -1.79934,3.806291 0,2.352981 1.73013,3.737087 1.79934,1.3149 4.84437,1.3149 z"
         style="font-weight:500;font-family:'DM Sans Medium';-inkscape-font-specification:'DM Sans Medium,  Medium';stroke-width:2.64583305;stroke-dasharray:none;fill:#ffffff;fill-opacity:1"
         id="path5665" /></g></g><rect
     style="fill:none;stroke:#0d9488;stroke-width:3.70416626;stroke-linecap:round;stroke-linejoin:round;stroke-miterlimit:3.5;stroke-dasharray:none;stroke-dashoffset:0;stroke-opacity:1"
     id="rect989"
     width="22.27529"
     height="0.13325596"
     x="17.030388"
     y="61.220291" /></svg>
